<?xml version="1.0" encoding="utf-8"?>
<!-- Generator: Adobe Illustrator 24.3.0, SVG Export Plug-In . SVG Version: 6.00 Build 0)  -->
<svg version="1.1" id="Layer_1" xmlns="http://www.w3.org/2000/svg" xmlns:xlink="http://www.w3.org/1999/xlink" x="0px" y="0px"
	 viewBox="0 0 600 400" style="enable-background:new 0 0 600 400;" xml:space="preserve">
<style type="text/css">
	.st0{fill:#FFFFFF;}
	.st1{fill:#E30613;}
	.st2{fill-rule:evenodd;clip-rule:evenodd;fill:#FFFFFF;}
	.st3{fill:none;}
</style>
<g>
	<path class="st0" d="M400.9,352.1l9.5,9.9v0.6l-9.5-9.9l-2.7,2.8v-0.6L400.9,352.1L400.9,352.1z M393.8,360.1l-2.4,2.5v10.7H391
		v-10.8l2.3-2.3H393.8L393.8,360.1z M407.4,344.3l-6.4-6.7l-6.4,6.7v3.1l-4.2-4.4l-7.9,8.2v8.9H382v-9l8.3-8.7l3.8,4v-2.2l6.8-7.1
		l6.4,6.7V344.3L407.4,344.3z"/>
	<polygon class="st0" points="436.6,373.2 436.6,345.8 458.1,345.8 458.1,346.3 437,346.3 437,373.2 	"/>
	<polygon class="st0" points="412.6,373.2 412.6,345.8 434.5,345.8 434.5,346.3 413,346.3 413,373.2 	"/>
	<polygon class="st0" points="436.6,373.2 436.6,345.8 458.1,345.8 458.1,346.3 437,346.3 437,373.2 	"/>
	<polygon class="st0" points="460.2,373.2 460.2,345.8 481.7,345.8 481.7,346.3 460.6,346.3 460.6,373.2 	"/>
	<polygon class="st0" points="483.8,373.2 483.8,345.8 505.3,345.8 505.3,346.3 484.2,346.3 484.2,373.2 	"/>
	<polygon class="st0" points="507.4,373.2 507.4,345.8 528.9,345.8 528.9,346.3 507.8,346.3 507.8,373.2 	"/>
	<polygon class="st0" points="531,373.2 531,345.8 552.5,345.8 552.5,346.3 531.4,346.3 531.4,373.2 	"/>
	<polygon class="st0" points="554.6,373.2 554.6,345.8 576.5,345.8 576.5,346.3 555,346.3 555,373.2 	"/>
	<polygon points="438.5,347.7 459.6,347.7 459.6,374.7 438.5,374.7 	"/>
	<polygon points="556.5,347.7 578,347.7 578,374.7 556.5,374.7 	"/>
	<polygon points="485.7,347.7 506.8,347.7 506.8,374.7 485.7,374.7 	"/>
	<polygon points="509.3,347.7 530.4,347.7 530.4,374.7 509.3,374.7 	"/>
	<polygon points="414.5,347.7 435.9,347.7 435.9,374.7 414.5,374.7 	"/>
	<polygon points="462.1,347.7 483.2,347.7 483.2,374.7 462.1,374.7 	"/>
	<polygon points="532.9,347.7 554,347.7 554,374.7 532.9,374.7 	"/>
	<polygon class="st1" points="437,346.3 458.1,346.3 458.1,373.2 437,373.2 	"/>
	<polygon class="st1" points="555,346.3 576.5,346.3 576.5,373.2 555,373.2 	"/>
	<polygon class="st1" points="484.2,346.3 505.3,346.3 505.3,373.2 484.2,373.2 	"/>
	<polygon class="st1" points="413,346.3 434.5,346.3 434.5,373.2 413,373.2 	"/>
	<polygon points="402.4,339.1 408.8,345.8 408.8,352.9 399.7,352.9 399.7,357 402.4,354.2 411.9,364.1 411.9,374.7 392.9,374.7 
		392.9,364.1 395.3,361.6 383.9,361.6 383.9,352.7 391.8,344.5 396,348.9 396,345.8 	"/>
	<polygon class="st1" points="401,337.6 407.4,344.3 407.4,351.4 398.3,351.4 398.3,355.5 400.9,352.7 410.5,362.6 410.5,373.2 
		391.4,373.2 391.4,362.6 393.8,360.1 382.4,360.1 382.4,351.2 390.3,343 394.6,347.4 394.6,344.3 	"/>
	<polygon class="st0" points="405.4,349.3 396.6,349.3 396.6,345.2 401,340.5 405.4,345.1 	"/>
	<polygon class="st0" points="395.8,357.5 385,357.5 385,352.3 390.4,346.6 395.8,352.3 	"/>
	<polygon class="st0" points="407.5,370.1 407.5,363.8 401,357 394.4,363.9 394.4,370.1 	"/>
	<polygon class="st0" points="487.7,350.7 491.2,350.7 491.2,358.6 498.3,358.6 498.3,350.7 501.8,350.7 501.8,368.6 498.3,368.6 
		498.3,361.7 491.2,361.7 491.2,368.6 487.7,368.6 487.7,350.7 	"/>
	<path class="st0" d="M447.8,354.9l-2.3,7.1h4.6L447.8,354.9L447.8,354.9z M451.1,364.9h-6.5l-1.2,3.7h-3.6l6.1-17.9h4l5.9,17.9
		h-3.6L451.1,364.9L451.1,364.9z"/>
	<polygon class="st1" points="460.6,346.3 481.7,346.3 481.7,373.2 460.6,373.2 	"/>
	<path class="st0" d="M464,350.7h3.6v11.1c0,1,0,4.4,3.6,4.4s3.6-3.5,3.6-4.4v-11.1h3.6v12c0,4.8-3.3,6.7-7.2,6.7
		c-3.9,0-7.2-1.9-7.2-6.4C464,362.9,464,350.7,464,350.7L464,350.7z"/>
	<polygon class="st1" points="531.4,346.3 552.5,346.3 552.5,373.2 531.4,373.2 	"/>
	<path class="st0" d="M534.8,350.7h3.6v11.1c0,1,0,4.4,3.6,4.4c3.6,0,3.6-3.5,3.6-4.4v-11.1h3.6v12c0,4.8-3.3,6.7-7.2,6.7
		c-3.9,0-7.2-1.9-7.2-6.4C534.8,362.9,534.8,350.7,534.8,350.7L534.8,350.7z"/>
	<path class="st0" d="M420.8,360.7v4.9h4.4c0.1,0,2.5,0,2.5-2.3s-2.1-2.6-2.5-2.6H420.8L420.8,360.7z M425.5,350.7
		c2.4,0,5.3,1.3,5.3,4.5c0,1.7-1.1,3.2-2.7,4c1.8,0.8,3.1,2.5,3.1,4.5c0,3-2.9,4.9-5.8,4.9h-8.3v-17.9L425.5,350.7L425.5,350.7z
		 M420.8,353.6v4.4c0,0,4.4,0,4.4,0c0.7,0,2.1-0.7,2.1-2.4c0-1.9-1.9-2.1-2.1-2.1L420.8,353.6L420.8,353.6z"/>
	<polygon class="st1" points="507.8,346.3 528.9,346.3 528.9,373.2 507.8,373.2 	"/>
	<path class="st0" d="M518.6,354.9l-2.3,7.1h4.6L518.6,354.9L518.6,354.9z M521.9,364.9h-6.5l-1.2,3.7h-3.6l6.1-17.9h4l5.9,17.9H523
		L521.9,364.9L521.9,364.9z"/>
	<path class="st0" d="M559.7,365h8.4c0.9,0,2-0.4,2-1.9c0-1.4-0.9-1.9-2-1.9l-3.8,0c-2.9-0.1-5.4-2.1-5.4-5.3c0-3,1.9-5.3,4.8-5.3
		h8.7v3.6h-8.2c-0.9,0-1.7,0.5-1.7,1.7c0,0.9,0.8,1.7,1.7,1.7h4c2.9,0.1,5.5,2.3,5.5,5.5c0,3.1-1.9,5.5-5,5.5h-8.9L559.7,365
		L559.7,365z"/>
	<path class="st2" d="M573.4,349.1h0.4l0.7,1.1h0.4l-0.7-1.1c0.4-0.1,0.7-0.2,0.7-0.7c0-0.5-0.3-0.7-0.9-0.7h-1v2.6h0.4L573.4,349.1
		L573.4,349.1z M573.4,347.9h0.5c0.4,0,0.6,0.1,0.6,0.4c0,0.3-0.2,0.4-0.6,0.4h-0.5V347.9L573.4,347.9z M571.7,348.9
		c0,1.3,1,2.2,2.2,2.2c1.2,0,2.2-0.9,2.2-2.2c0-1.3-1-2.2-2.2-2.2C572.7,346.7,571.7,347.6,571.7,348.9L571.7,348.9z M575.7,348.9
		c0,1.1-0.8,1.9-1.8,1.9c-1,0-1.8-0.8-1.8-1.9c0-1.1,0.8-1.9,1.8-1.9C574.9,347,575.7,347.8,575.7,348.9L575.7,348.9z"/>
	<polygon class="st0" points="488.7,386.4 488.7,384 490.2,384 490.2,386.4 491.2,386.4 491.2,381 490.2,381 490.2,383.1 
		488.7,383.1 488.7,381 487.7,381 487.7,386.4 	"/>
	<path class="st2" d="M493.2,383.5c0-0.3,0.2-0.5,0.5-0.5c0.3,0,0.5,0.1,0.5,0.5v0.3c-1.2,0.4-2.1,0.8-2.1,1.7c0,0.7,0.4,1,0.9,1
		c0.5,0,0.8-0.2,1.1-0.5c0,0.2,0,0.3,0.1,0.4h0.9c0-0.1-0.1-0.2-0.1-0.3v-2.6c0-0.7-0.4-1.2-1.4-1.2c-0.8,0-1.4,0.4-1.5,1.3
		L493.2,383.5L493.2,383.5z M494.2,385.4c-0.2,0.2-0.4,0.4-0.7,0.4c-0.3,0-0.4-0.2-0.4-0.4c0-0.4,0.6-0.7,1.1-0.9L494.2,385.4
		L494.2,385.4z"/>
	<path class="st2" d="M499.9,383.5c0-0.3,0.2-0.5,0.5-0.5c0.3,0,0.5,0.1,0.5,0.5v0.3c-1.2,0.4-2.1,0.8-2.1,1.7c0,0.7,0.4,1,0.9,1
		c0.5,0,0.8-0.2,1.1-0.5c0,0.2,0,0.3,0.1,0.4h0.9c0-0.1-0.1-0.2-0.1-0.3v-2.6c0-0.7-0.4-1.2-1.4-1.2c-0.8,0-1.4,0.4-1.5,1.3
		L499.9,383.5L499.9,383.5z M500.9,385.4c-0.2,0.2-0.4,0.4-0.7,0.4c-0.3,0-0.4-0.2-0.4-0.4c0-0.4,0.6-0.7,1.1-0.9L500.9,385.4
		L500.9,385.4z"/>
	<polygon class="st0" points="503,383.1 504.5,383.1 502.8,385.6 502.8,386.4 505.6,386.4 505.6,385.5 503.9,385.5 505.6,383.1 
		505.6,382.3 503,382.3 	"/>
	<polygon class="st0" points="510.2,386.4 510.2,385.1 510.7,384.5 511.4,386.4 512.4,386.4 511.4,383.7 512.3,382.3 511.3,382.3 
		510.3,383.9 510.2,383.9 510.2,381 509.3,381 509.3,386.4 	"/>
	<path class="st2" d="M515.9,384.6v-0.9c0-0.8-0.6-1.4-1.5-1.4c-0.9,0-1.5,0.6-1.5,1.4v1.3c0,0.9,0.6,1.4,1.5,1.4
		c0.9,0,1.4-0.5,1.5-1.3H515c0,0.3-0.2,0.6-0.6,0.6c-0.3,0-0.6-0.2-0.6-0.6v-0.5L515.9,384.6L515.9,384.6z M513.9,383.8v-0.2
		c0-0.4,0.2-0.6,0.6-0.6c0.4,0,0.6,0.2,0.6,0.6v0.2H513.9L513.9,383.8z"/>
	<polygon class="st0" points="516.9,386.4 517.9,386.4 517.9,381 516.9,381 	"/>
	<polygon class="st0" points="519.3,386.4 520.2,386.4 520.2,381 519.3,381 	"/>
	<polygon class="st0" points="521.7,387.5 522.3,387.5 522.7,386.4 522.7,385.3 521.7,385.3 521.7,386.4 522.1,386.4 	"/>
	<path class="st0" d="M528,386.4v-3.1c0.2-0.2,0.4-0.4,0.6-0.4c0.3,0,0.3,0.2,0.3,0.5v3h0.9v-3.1c0-0.8-0.3-1-0.9-1
		c-0.4,0-0.7,0.2-1,0.5V381h-0.9v5.4L528,386.4L528,386.4z"/>
	<path class="st2" d="M531,384.9c0,1.1,0.6,1.5,1.5,1.5s1.5-0.5,1.5-1.5v-1.1c0-1.1-0.6-1.5-1.5-1.5s-1.5,0.5-1.5,1.5V384.9
		L531,384.9z M531.9,383.5c0-0.3,0.2-0.5,0.6-0.5s0.6,0.2,0.6,0.5v1.6c0,0.3-0.2,0.5-0.6,0.5s-0.6-0.2-0.6-0.5V383.5L531.9,383.5z"
		/>
	<path class="st2" d="M536.7,383.8c0,0.7-0.1,0.9-0.5,0.9c-0.3,0-0.5-0.3-0.5-0.8c0-0.6,0.1-0.9,0.5-0.9
		C536.6,383,536.7,383.3,536.7,383.8L536.7,383.8z M538.1,382.2c-0.4,0-0.6,0.2-0.8,0.5c-0.2-0.3-0.7-0.5-1.1-0.5
		c-1.1,0-1.4,0.7-1.4,1.5c0,0.7,0.2,1.1,0.6,1.4c-0.2,0.1-0.6,0.4-0.6,0.7c0,0.3,0.2,0.4,0.4,0.6c-0.2,0.1-0.6,0.3-0.6,0.6
		c0,0.5,0.6,0.7,1.6,0.7c1.1,0,1.8-0.3,1.8-1c0-1.5-2.4-0.7-2.4-1.2c0-0.1,0.1-0.2,0.2-0.2c0.1,0,0.3,0.1,0.4,0.1
		c0.9,0,1.4-0.6,1.4-1.6c0-0.3-0.1-0.5-0.1-0.7c0.1,0,0.2-0.1,0.3-0.1c0.1,0,0.2,0,0.3,0.1L538.1,382.2L538.1,382.2z M536.8,386.6
		c0.3,0,0.3,0.1,0.3,0.2c0,0.2-0.3,0.3-0.7,0.3c-0.6,0-0.9-0.1-0.9-0.3c0-0.2,0.1-0.2,0.2-0.3L536.8,386.6L536.8,386.6z"/>
	<path class="st0" d="M538.9,387.8c0.1,0,0.2,0,0.3,0c0.9,0,1.3-0.4,1.6-1.4l1.1-4h-1l-0.6,2.7h0l-0.6-2.7h-1l0.9,3.3
		c0.1,0.3,0.2,0.6,0.2,0.9c0,0.2-0.3,0.5-0.7,0.5c-0.1,0-0.2,0-0.3,0L538.9,387.8L538.9,387.8z"/>
	<path class="st2" d="M546,382.3v4.3c0,0.3-0.2,0.4-0.6,0.4v0.8c0.1,0,0.2,0,0.3,0c0.6,0,1.1-0.3,1.1-1.1v-4.4L546,382.3L546,382.3z
		 M547,381.6v-0.9H546v0.9H547L547,381.6z"/>
	<path class="st2" d="M549.6,380.7l-0.7,1.1h0.8l1.1-1.1H549.6L549.6,380.7z M548.1,384.9c0,1.1,0.6,1.5,1.5,1.5s1.5-0.5,1.5-1.5
		v-1.1c0-1.1-0.6-1.5-1.5-1.5s-1.5,0.5-1.5,1.5V384.9L548.1,384.9z M549,383.5c0-0.3,0.2-0.5,0.6-0.5c0.3,0,0.6,0.2,0.6,0.5v1.6
		c0,0.3-0.2,0.5-0.6,0.5c-0.3,0-0.6-0.2-0.6-0.5V383.5L549,383.5z"/>
	<polygon class="st0" points="555.1,386.4 556,386.4 556,381 555.1,381 	"/>
	<path class="st2" d="M560.2,384.6v-0.9c0-0.8-0.6-1.4-1.5-1.4c-0.9,0-1.5,0.6-1.5,1.4v1.3c0,0.9,0.6,1.4,1.5,1.4
		c0.9,0,1.4-0.5,1.5-1.3h-0.9c0,0.3-0.2,0.6-0.6,0.6c-0.3,0-0.6-0.2-0.6-0.6v-0.5L560.2,384.6L560.2,384.6z M558.1,383.8v-0.2
		c0-0.4,0.2-0.6,0.6-0.6c0.4,0,0.6,0.2,0.6,0.6v0.2H558.1L558.1,383.8z"/>
	<path class="st2" d="M563,383.8c0,0.7-0.1,0.9-0.5,0.9c-0.3,0-0.5-0.3-0.5-0.8c0-0.6,0.1-0.9,0.5-0.9
		C562.9,383,563,383.3,563,383.8L563,383.8z M564.4,382.2c-0.4,0-0.6,0.2-0.8,0.5c-0.2-0.3-0.7-0.5-1.1-0.5c-1.1,0-1.4,0.7-1.4,1.5
		c0,0.7,0.2,1.1,0.6,1.4c-0.2,0.1-0.6,0.4-0.6,0.7c0,0.3,0.2,0.4,0.4,0.6c-0.2,0.1-0.6,0.3-0.6,0.6c0,0.5,0.6,0.7,1.6,0.7
		c1.1,0,1.8-0.3,1.8-1c0-1.5-2.4-0.7-2.4-1.2c0-0.1,0.1-0.2,0.2-0.2c0.1,0,0.3,0.1,0.4,0.1c0.9,0,1.4-0.6,1.4-1.6
		c0-0.3-0.1-0.5-0.1-0.7c0.1,0,0.2-0.1,0.3-0.1c0.1,0,0.2,0,0.3,0.1L564.4,382.2L564.4,382.2z M563.1,386.6c0.3,0,0.3,0.1,0.3,0.2
		c0,0.2-0.3,0.3-0.7,0.3c-0.6,0-0.9-0.1-0.9-0.3c0-0.2,0.1-0.2,0.2-0.3L563.1,386.6L563.1,386.6z"/>
	<path class="st0" d="M565,387.8c0.1,0,0.2,0,0.3,0c0.9,0,1.3-0.4,1.6-1.4l1.1-4h-1l-0.6,2.7h0l-0.6-2.7h-1l0.9,3.3
		c0.1,0.3,0.2,0.6,0.2,0.9c0,0.2-0.3,0.5-0.7,0.5c-0.1,0-0.2,0-0.3,0L565,387.8L565,387.8z"/>
	<path class="st2" d="M571.4,384.6v-0.9c0-0.8-0.6-1.4-1.5-1.4c-0.9,0-1.5,0.6-1.5,1.4v1.3c0,0.9,0.6,1.4,1.5,1.4
		c0.9,0,1.4-0.5,1.5-1.3h-0.9c0,0.3-0.2,0.6-0.6,0.6c-0.3,0-0.6-0.2-0.6-0.6v-0.5L571.4,384.6L571.4,384.6z M569.4,383.8v-0.2
		c0-0.4,0.2-0.6,0.6-0.6c0.4,0,0.6,0.2,0.6,0.6v0.2H569.4L569.4,383.8z"/>
	<path class="st2" d="M573.4,386.4v-3.1c0.2-0.2,0.4-0.4,0.6-0.4c0.3,0,0.3,0.2,0.3,0.5v3h0.9v-3.1c0-0.8-0.3-1-0.9-1
		c-0.4,0-0.7,0.2-1.1,0.5v-0.5h-0.9v4L573.4,386.4L573.4,386.4z"/>
	<polygon class="st0" points="577.5,386.4 577.5,385.3 576.5,385.3 576.5,386.4 	"/>
</g>
<rect class="st3" width="600" height="400"/>
</svg>
