<?xml version="1.0" encoding="utf-8"?>
<!-- Generator: Adobe Illustrator 24.3.0, SVG Export Plug-In . SVG Version: 6.00 Build 0)  -->
<svg version="1.1" id="Layer_1" xmlns="http://www.w3.org/2000/svg" xmlns:xlink="http://www.w3.org/1999/xlink" x="0px" y="0px"
	 viewBox="0 0 600 400" style="enable-background:new 0 0 600 400;" xml:space="preserve">
<style type="text/css">
	.st0{fill:#FFFFFF;}
	.st1{fill:#E30613;}
	.st2{fill-rule:evenodd;clip-rule:evenodd;fill:#FFFFFF;}
	.st3{fill-rule:evenodd;clip-rule:evenodd;}
	.st4{fill:none;}
</style>
<g>
	<path class="st0" d="M150.8,180.4l17.9,18.7v1.1l-17.9-18.7l-5.1,5.3v-1.1L150.8,180.4L150.8,180.4z M137.3,195.5l-4.6,4.7v20.1
		H132V200l4.2-4.4H137.3L137.3,195.5z M162.9,165.7l-12.1-12.6l-12.1,12.6v5.9l-8-8.3l-15,15.6v16.7H115v-17.1l15.8-16.4l7.2,7.5
		v-4.2l12.9-13.4l12.1,12.6V165.7L162.9,165.7z"/>
	<polygon class="st0" points="218.1,220.4 218.1,168.7 258.6,168.7 258.6,169.5 218.9,169.5 218.9,220.4 	"/>
	<polygon class="st0" points="172.7,220.4 172.7,168.7 214.1,168.7 214.1,169.5 173.5,169.5 173.5,220.4 	"/>
	<polygon class="st0" points="218.1,220.4 218.1,168.7 258.6,168.7 258.6,169.5 218.9,169.5 218.9,220.4 	"/>
	<polygon class="st0" points="262.6,220.4 262.6,168.7 303.2,168.7 303.2,169.5 263.4,169.5 263.4,220.4 	"/>
	<polygon class="st0" points="307.2,220.4 307.2,168.7 347.8,168.7 347.8,169.5 308,169.5 308,220.4 	"/>
	<polygon class="st0" points="351.7,220.4 351.7,168.7 392.3,168.7 392.3,169.5 352.5,169.5 352.5,220.4 	"/>
	<polygon class="st0" points="396.3,220.4 396.3,168.7 436.9,168.7 436.9,169.5 397.1,169.5 397.1,220.4 	"/>
	<polygon class="st0" points="440.8,220.4 440.8,168.7 482.2,168.7 482.2,169.5 441.6,169.5 441.6,220.4 	"/>
	<polygon points="221.6,172.3 261.4,172.3 261.4,223.2 221.6,223.2 	"/>
	<polygon points="444.4,172.3 485,172.3 485,223.2 444.4,223.2 	"/>
	<polygon points="310.8,172.3 350.5,172.3 350.5,223.2 310.8,223.2 	"/>
	<polygon points="355.3,172.3 395.1,172.3 395.1,223.2 355.3,223.2 	"/>
	<polygon points="176.3,172.3 216.9,172.3 216.9,223.2 176.3,223.2 	"/>
	<polygon points="266.2,172.3 306,172.3 306,223.2 266.2,223.2 	"/>
	<polygon points="399.9,172.3 439.6,172.3 439.6,223.2 399.9,223.2 	"/>
	<polygon class="st1" points="218.8,169.5 258.6,169.5 258.6,220.4 218.8,220.4 	"/>
	<polygon class="st1" points="441.6,169.5 482.2,169.5 482.2,220.4 441.6,220.4 	"/>
	<polygon class="st1" points="308,169.5 347.7,169.5 347.7,220.4 308,220.4 	"/>
	<polygon class="st1" points="173.5,169.5 214.1,169.5 214.1,220.4 173.5,220.4 	"/>
	<polygon points="153.5,156 165.6,168.6 165.6,182.1 148.4,182.1 148.4,189.7 153.5,184.4 171.4,203.1 171.4,223.2 135.5,223.2 
		135.5,203.1 140.1,198.4 118.5,198.4 118.5,181.6 133.5,166.1 141.4,174.4 141.5,168.6 	"/>
	<polygon class="st1" points="150.8,153.1 162.9,165.7 162.9,179.2 145.7,179.2 145.7,186.9 150.8,181.6 168.7,200.3 168.7,220.4 
		132.8,220.4 132.8,200.3 137.3,195.5 115.8,195.5 115.8,178.8 130.8,163.3 138.7,171.6 138.7,165.7 	"/>
	<polygon class="st0" points="159.1,175.3 142.5,175.3 142.5,167.4 150.8,158.7 159.1,167.3 	"/>
	<polygon class="st0" points="141.1,190.6 120.6,190.6 120.6,180.9 130.9,170.1 141.1,180.9 	"/>
	<polygon class="st0" points="163.1,214.5 163.1,202.7 150.8,189.8 138.4,202.8 138.4,214.5 	"/>
	<polygon class="st0" points="314.5,177.8 321.2,177.8 321.2,192.8 334.5,192.8 334.5,177.8 341.2,177.8 341.2,211.7 334.5,211.7 
		334.5,198.5 321.2,198.5 321.2,211.7 314.5,211.7 	"/>
	<path class="st0" d="M239.1,185.8l-4.3,13.3h8.6L239.1,185.8L239.1,185.8z M245.4,204.6h-12.3l-2.3,7.1H224l11.5-33.8h7.5
		l11.2,33.8h-6.8L245.4,204.6L245.4,204.6z"/>
	<polygon class="st1" points="263.4,169.5 303.2,169.5 303.2,220.4 263.4,220.4 	"/>
	<path class="st0" d="M269.9,177.8h6.7v20.9c0,1.8,0,8.4,6.9,8.4s6.9-6.6,6.9-8.4v-20.9h6.7v22.7c0,9.1-6.3,12.7-13.6,12.7
		c-7.3,0-13.6-3.6-13.6-12.1C269.9,200.9,269.9,177.8,269.9,177.8L269.9,177.8z"/>
	<polygon class="st1" points="397.1,169.5 436.9,169.5 436.9,220.4 397.1,220.4 	"/>
	<path class="st0" d="M403.5,177.8h6.7v20.9c0,1.8,0,8.4,6.9,8.4s6.9-6.6,6.9-8.4v-20.9h6.7v22.7c0,9.1-6.3,12.7-13.6,12.7
		c-7.3,0-13.6-3.6-13.6-12.1C403.5,200.9,403.5,177.8,403.5,177.8L403.5,177.8z"/>
	<path class="st0" d="M188.2,196.8v9.3h8.3c0.1,0,4.7,0.1,4.7-4.3s-3.9-4.9-4.7-4.9H188.2L188.2,196.8z M197.2,177.8
		c4.6,0,10,2.5,10,8.5c0,3.3-2,6.1-5,7.5c3.4,1.5,5.8,4.7,5.8,8.5c0,5.7-5.5,9.3-11,9.3h-15.6v-33.9H197.2L197.2,177.8z
		 M188.2,183.2v8.4c0,0,8.2,0,8.3,0c1.3,0,4-1.3,4-4.5c0-3.5-3.7-3.9-4-3.9H188.2L188.2,183.2z"/>
	<polygon class="st1" points="352.5,169.5 392.3,169.5 392.3,220.4 352.5,220.4 	"/>
	<path class="st0" d="M372.8,185.8l-4.3,13.3h8.6L372.8,185.8L372.8,185.8z M379,204.6h-12.3l-2.3,7.1h-6.8l11.5-33.8h7.5l11.2,33.8
		h-6.8L379,204.6L379,204.6z"/>
	<path class="st0" d="M450.4,204.9h15.8c1.7,0,3.7-0.8,3.7-3.6c0-2.7-1.7-3.6-3.7-3.6l-7.2,0c-5.4-0.2-10.1-4-10.1-10
		c0-5.7,3.5-10,9-10h16.4v6.7h-15.5c-1.8,0-3.2,0.9-3.2,3.2c0,1.8,1.5,3.2,3.2,3.2h7.5c5.5,0.3,10.4,4.2,10.4,10.4
		c0,5.9-3.7,10.4-9.4,10.4h-16.8L450.4,204.9L450.4,204.9z"/>
	<path class="st2" d="M476.4,174.8h0.8l1.3,2.1h0.8l-1.4-2.1c0.7-0.1,1.2-0.5,1.2-1.3c0-0.9-0.6-1.4-1.7-1.4h-1.8v4.8h0.7
		L476.4,174.8L476.4,174.8L476.4,174.8z M476.4,172.6h1c0.8,0,1.1,0.3,1.1,0.7c0,0.5-0.3,0.8-1.2,0.8h-0.9V172.6L476.4,172.6z
		 M473.1,174.4c0,2.4,1.9,4.2,4.2,4.2c2.2,0,4.2-1.8,4.2-4.2c0-2.4-1.9-4.2-4.2-4.2C475,170.3,473.1,172,473.1,174.4L473.1,174.4z
		 M480.6,174.4c0,2-1.5,3.5-3.4,3.5c-1.9,0-3.4-1.5-3.4-3.5c0-2,1.5-3.5,3.4-3.5C479.1,170.9,480.6,172.4,480.6,174.4L480.6,174.4z"
		/>
	<polygon points="316.4,245.2 316.4,240.8 319.2,240.8 319.2,245.2 321.1,245.2 321.1,235 319.2,235 319.2,239.1 316.4,239.1 
		316.4,235 314.5,235 314.5,245.2 	"/>
	<path class="st3" d="M324.9,239.8c0-0.6,0.5-0.9,1-0.9c0.5,0,0.9,0.2,0.9,0.9v0.6c-2.2,0.7-3.9,1.4-3.9,3.2c0,1.2,0.7,1.8,1.8,1.8
		c0.9,0,1.6-0.4,2.1-0.9c0.1,0.3,0.1,0.6,0.1,0.7h1.8c-0.1-0.2-0.1-0.4-0.1-0.6v-4.8c0-1.4-0.7-2.3-2.6-2.3c-1.4,0-2.7,0.7-2.8,2.4
		L324.9,239.8L324.9,239.8z M326.8,243.3c-0.4,0.4-0.8,0.7-1.3,0.7c-0.5,0-0.8-0.3-0.8-0.8c0-0.8,1.1-1.4,2.1-1.8V243.3L326.8,243.3
		z"/>
	<path class="st3" d="M337.5,239.8c0-0.6,0.5-0.9,1-0.9c0.5,0,0.9,0.2,0.9,0.9v0.6c-2.2,0.7-3.9,1.4-3.9,3.2c0,1.2,0.7,1.8,1.8,1.8
		c0.9,0,1.6-0.4,2.1-0.9c0.1,0.3,0.1,0.6,0.1,0.7h1.8c-0.1-0.2-0.1-0.4-0.1-0.6v-4.8c0-1.4-0.7-2.3-2.6-2.3c-1.4,0-2.7,0.7-2.8,2.4
		L337.5,239.8L337.5,239.8z M339.4,243.3c-0.4,0.4-0.8,0.7-1.3,0.7c-0.5,0-0.8-0.3-0.8-0.8c0-0.8,1.1-1.4,2.1-1.8V243.3L339.4,243.3
		z"/>
	<polygon points="343.3,239.1 346.2,239.1 343,243.6 343,245.2 348.4,245.2 348.4,243.6 345.2,243.6 348.4,239.1 348.4,237.5 
		343.3,237.5 	"/>
	<polygon points="357.1,245.2 357.1,242.8 358,241.6 359.3,245.2 361.1,245.2 359.2,240.1 361,237.5 359,237.5 357.1,240.5 
		357.1,240.5 357.1,235 355.3,235 355.3,245.2 	"/>
	<path class="st3" d="M367.9,241.8V240c0-1.6-1.2-2.6-2.8-2.6c-1.7,0-2.8,1-2.8,2.7v2.5c0,1.7,1.1,2.7,2.8,2.7
		c1.8,0,2.7-0.9,2.8-2.5h-1.8c0,0.6-0.3,1.1-1,1.1c-0.6,0-1-0.3-1-1.1v-1L367.9,241.8L367.9,241.8z M364,240.3v-0.4
		c0-0.7,0.3-1.1,1-1.1s1,0.4,1,1.1v0.4H364L364,240.3z"/>
	<polygon points="369.7,245.2 371.5,245.2 371.5,235 369.7,235 	"/>
	<polygon points="374.2,245.2 376,245.2 376,235 374.2,235 	"/>
	<polygon points="378.8,247.2 379.8,247.2 380.6,245.2 380.6,243.2 378.6,243.2 378.6,245.2 379.5,245.2 	"/>
	<path d="M390.6,245.2v-5.8c0.4-0.3,0.8-0.7,1.1-0.7c0.5,0,0.6,0.3,0.6,0.8v5.6h1.8v-5.8c0-1.4-0.6-2-1.6-2c-0.7,0-1.3,0.4-1.9,1
		V235h-1.8v10.1L390.6,245.2L390.6,245.2L390.6,245.2z"/>
	<path class="st3" d="M396.2,242.4c0,2,1,2.9,2.8,2.9s2.8-0.9,2.8-2.9v-2.1c0-2-1-2.9-2.8-2.9s-2.8,0.9-2.8,2.9V242.4L396.2,242.4z
		 M398,239.8c0-0.6,0.4-0.9,1-0.9s1,0.3,1,0.9v3c0,0.6-0.4,0.9-1,0.9s-1-0.3-1-0.9V239.8L398,239.8z"/>
	<path class="st3" d="M407.1,240.3c0,1.3-0.2,1.6-1,1.6c-0.5,0-0.8-0.5-0.8-1.4c0-1.2,0.2-1.7,0.9-1.7
		C406.8,238.8,407.1,239.3,407.1,240.3L407.1,240.3z M409.7,237.4c-0.7,0-1.1,0.3-1.5,0.9c-0.5-0.6-1.3-0.9-2-0.9
		c-2,0-2.6,1.2-2.6,2.9c0,1.3,0.3,2.1,1.1,2.6c-0.4,0.3-1.1,0.7-1.1,1.3c0,0.5,0.3,0.8,0.7,1.1c-0.4,0.3-1.1,0.6-1.1,1.2
		c0,0.9,1,1.4,2.9,1.4c2,0,3.4-0.6,3.4-1.9c0-2.8-4.4-1.3-4.4-2.2c0-0.2,0.2-0.3,0.3-0.4c0.3,0.1,0.5,0.1,0.7,0.1
		c1.7,0,2.5-1.1,2.5-3c0-0.5-0.1-0.8-0.2-1.4c0.2-0.1,0.4-0.2,0.6-0.2c0.1,0,0.4,0.1,0.5,0.1V237.4L409.7,237.4z M407.2,245.7
		c0.5,0,0.6,0.1,0.6,0.4c0,0.4-0.5,0.6-1.3,0.6c-1,0-1.6-0.2-1.6-0.6c0-0.3,0.2-0.4,0.4-0.6L407.2,245.7L407.2,245.7z"/>
	<path d="M411.1,247.8c0.2,0,0.4,0,0.6,0c1.8,0,2.5-0.7,3-2.7l2-7.6h-1.8l-1.1,5.1h0l-1.2-5.1h-1.8l1.8,6.2c0.2,0.6,0.3,1.2,0.3,1.6
		c0,0.3-0.5,1-1.3,1c-0.2,0-0.4,0-0.5,0L411.1,247.8L411.1,247.8z"/>
	<path class="st3" d="M424.6,237.5v8c0,0.5-0.3,0.7-1,0.7v1.6c0.2,0,0.4,0,0.6,0c1.2,0,2.2-0.6,2.2-2.1v-8.2L424.6,237.5
		L424.6,237.5z M426.4,236.2v-1.6h-1.8v1.6H426.4L426.4,236.2z"/>
	<path class="st3" d="M431.5,234.6l-1.3,2.1h1.4l2.1-2.1H431.5L431.5,234.6z M428.6,242.4c0,2,1,2.9,2.8,2.9s2.8-0.9,2.8-2.9v-2.1
		c0-2-1-2.9-2.8-2.9s-2.8,0.9-2.8,2.9V242.4L428.6,242.4z M430.3,239.8c0-0.6,0.4-0.9,1-0.9s1,0.3,1,0.9v3c0,0.6-0.4,0.9-1,0.9
		s-1-0.3-1-0.9V239.8L430.3,239.8z"/>
	<polygon points="441.8,245.2 443.5,245.2 443.5,235 441.8,235 	"/>
	<path class="st3" d="M451.4,241.8V240c0-1.6-1.2-2.6-2.8-2.6c-1.7,0-2.8,1-2.8,2.7v2.5c0,1.7,1.1,2.7,2.8,2.7
		c1.8,0,2.7-0.9,2.8-2.5h-1.8c0,0.6-0.3,1.1-1,1.1c-0.6,0-1-0.3-1-1.1v-1L451.4,241.8L451.4,241.8z M447.5,240.3v-0.4
		c0-0.7,0.3-1.1,1-1.1s1,0.4,1,1.1v0.4H447.5L447.5,240.3z"/>
	<path class="st3" d="M456.7,240.3c0,1.3-0.2,1.6-1,1.6c-0.5,0-0.8-0.5-0.8-1.4c0-1.2,0.2-1.7,0.9-1.7
		C456.4,238.8,456.7,239.3,456.7,240.3L456.7,240.3z M459.3,237.4c-0.7,0-1.1,0.3-1.5,0.9c-0.5-0.6-1.3-0.9-2-0.9
		c-2,0-2.6,1.2-2.6,2.9c0,1.3,0.3,2.1,1.1,2.6c-0.4,0.3-1.1,0.7-1.1,1.3c0,0.5,0.3,0.8,0.7,1.1c-0.4,0.3-1.1,0.6-1.1,1.2
		c0,0.9,1,1.4,2.9,1.4c2,0,3.4-0.6,3.4-1.9c0-2.8-4.4-1.3-4.4-2.2c0-0.2,0.2-0.3,0.3-0.4c0.3,0.1,0.5,0.1,0.7,0.1
		c1.7,0,2.5-1.1,2.5-3c0-0.5-0.1-0.8-0.2-1.4c0.2-0.1,0.4-0.2,0.6-0.2c0.1,0,0.4,0.1,0.5,0.1L459.3,237.4L459.3,237.4L459.3,237.4z
		 M456.9,245.7c0.5,0,0.6,0.1,0.6,0.4c0,0.4-0.5,0.6-1.3,0.6c-1,0-1.6-0.2-1.6-0.6c0-0.3,0.2-0.4,0.4-0.6L456.9,245.7L456.9,245.7z"
		/>
	<path d="M460.5,247.8c0.2,0,0.4,0,0.6,0c1.8,0,2.5-0.7,3-2.7l2-7.6h-1.8l-1.1,5.1h0l-1.2-5.1h-1.8l1.8,6.2c0.2,0.6,0.3,1.2,0.3,1.6
		c0,0.3-0.5,1-1.3,1c-0.2,0-0.4,0-0.5,0L460.5,247.8L460.5,247.8z"/>
	<path class="st3" d="M472.6,241.8V240c0-1.6-1.2-2.6-2.8-2.6c-1.7,0-2.8,1-2.8,2.7v2.5c0,1.7,1.1,2.7,2.8,2.7
		c1.8,0,2.7-0.9,2.8-2.5h-1.8c0,0.6-0.3,1.1-1,1.1c-0.6,0-1-0.3-1-1.1v-1L472.6,241.8L472.6,241.8z M468.8,240.3v-0.4
		c0-0.7,0.3-1.1,1-1.1s1,0.4,1,1.1v0.4H468.8L468.8,240.3z"/>
	<path class="st3" d="M476.2,245.2v-5.8c0.4-0.3,0.8-0.7,1.1-0.7c0.5,0,0.6,0.3,0.6,0.8v5.6h1.8v-5.8c0-1.4-0.6-2-1.6-2
		c-0.7,0-1.3,0.4-2,1v-0.9h-1.7v7.6L476.2,245.2L476.2,245.2L476.2,245.2z"/>
	<polygon points="484.1,245.2 484.1,243.2 482.1,243.2 482.1,245.2 	"/>
</g>
<rect class="st4" width="600" height="400"/>
</svg>
